<?xml version="1.0" encoding="iso-8859-1"?>
<!-- Uploaded to: SVG Repo, www.svgrepo.com, Generator: SVG Repo Mixer Tools -->
<svg version="1.1" id="Layer_1" xmlns="http://www.w3.org/2000/svg" xmlns:xlink="http://www.w3.org/1999/xlink" 
	 viewBox="0 0 512 512" xml:space="preserve">
<rect x="401.396" y="224.449" style="fill:#8CC63F;" width="23.886" height="15.578"/>
<circle style="fill:#FF931E;" cx="441.172" cy="232.363" r="15.76"/>
<path style="fill:#8CC63F;" d="M504.211,82.646c0,34.815-63.037,126.076-63.037,126.076s-63.037-91.261-63.037-126.076
	s28.223-63.037,63.037-63.037S504.211,47.832,504.211,82.646z"/>
<circle style="fill:#FF931E;" cx="441.172" cy="82.647" r="39.399"/>
<rect x="86.718" y="468.506" style="fill:#8CC63F;" width="23.886" height="15.578"/>
<circle style="fill:#FFFFFF;" cx="441.172" cy="82.647" r="15.76"/>
<circle style="fill:#FF931E;" cx="70.828" cy="476.627" r="15.76"/>
<path style="fill:#8CC63F;" d="M70.826,263.879c-34.815,0-63.037,28.223-63.037,63.037c0,34.815,63.037,126.076,63.037,126.076
	s63.037-91.261,63.037-126.076C133.865,292.103,105.641,263.879,70.826,263.879z M70.826,366.316
	c-21.759,0-39.399-17.64-39.399-39.398c0-21.759,17.64-39.399,39.399-39.399s39.399,17.64,39.399,39.399
	C110.225,348.676,92.586,366.316,70.826,366.316z"/>
<g>
	<path id="SVGCleanerId_0" d="M70.826,374.105c-26.02,0-47.187-21.169-47.187-47.187c0-26.02,21.169-47.187,47.187-47.187
		c26.02,0,47.188,21.169,47.188,47.187C118.014,352.936,96.846,374.105,70.826,374.105z M70.826,295.308
		c-17.43,0-31.609,14.18-31.609,31.609c0,17.43,14.179,31.609,31.609,31.609s31.61-14.18,31.61-31.609
		C102.436,309.488,88.256,295.308,70.826,295.308z"/>
</g>
<g>
	<path id="SVGCleanerId_0_1_" d="M70.826,374.105c-26.02,0-47.187-21.169-47.187-47.187c0-26.02,21.169-47.187,47.187-47.187
		c26.02,0,47.188,21.169,47.188,47.187C118.014,352.936,96.846,374.105,70.826,374.105z M70.826,295.308
		c-17.43,0-31.609,14.18-31.609,31.609c0,17.43,14.179,31.609,31.609,31.609s31.61-14.18,31.61-31.609
		C102.436,309.488,88.256,295.308,70.826,295.308z"/>
</g>
<circle style="fill:#FF931E;" cx="70.828" cy="326.922" r="39.399"/>
<g>
	<path id="SVGCleanerId_0_2_" d="M70.826,374.105c-26.02,0-47.187-21.169-47.187-47.187c0-26.02,21.169-47.187,47.187-47.187
		c26.02,0,47.188,21.169,47.188,47.187C118.014,352.936,96.846,374.105,70.826,374.105z M70.826,295.308
		c-17.43,0-31.609,14.18-31.609,31.609c0,17.43,14.179,31.609,31.609,31.609s31.61-14.18,31.61-31.609
		C102.436,309.488,88.256,295.308,70.826,295.308z"/>
</g>
<g>
	<circle style="fill:#FFFFFF;" cx="70.828" cy="326.922" r="15.76"/>
	<rect x="62.832" y="381.269" style="fill:#FFFFFF;" width="15.578" height="15.578"/>
</g>
<path d="M70.826,350.466c-12.985,0-23.549-10.564-23.549-23.549c0-12.984,10.564-23.548,23.549-23.548s23.549,10.564,23.549,23.548
	C94.375,339.903,83.811,350.466,70.826,350.466z M70.826,318.947c-4.394,0-7.971,3.576-7.971,7.97c0,4.395,3.576,7.971,7.971,7.971
	c4.395,0,7.971-3.576,7.971-7.971C78.797,322.523,75.221,318.947,70.826,318.947z"/>
<path d="M70.826,256.09C31.773,256.09,0,287.863,0,326.918c0,33.833,50.507,110.077,62.494,127.694
	c-8.884,3.373-15.216,11.969-15.216,22.02c0,12.985,10.564,23.549,23.549,23.549s23.549-10.564,23.549-23.549
	c0-10.055-6.337-18.654-15.226-22.024c4.704-6.964,17.385-26.057,29.934-47.689c21.612-37.257,32.57-64.172,32.57-80.002
	C141.653,287.863,109.881,256.09,70.826,256.09z M70.826,484.602c-4.394,0-7.971-3.576-7.971-7.971c0-4.395,3.576-7.97,7.971-7.97
	c4.395,0,7.971,3.576,7.971,7.97C78.797,481.027,75.221,484.602,70.826,484.602z M70.826,439.064
	c-19.818-29.969-55.248-88.456-55.248-112.147c0-30.463,24.784-55.248,55.248-55.248s55.248,24.785,55.248,55.248
	C126.075,350.609,90.645,409.095,70.826,439.064z"/>
<path d="M512,82.647c0-39.054-31.773-70.827-70.826-70.827s-70.826,31.773-70.826,70.827c0,33.831,50.507,110.077,62.494,127.694
	c-8.884,3.373-15.216,11.969-15.216,22.021c0,12.985,10.564,23.548,23.549,23.548c12.985,0,23.549-10.564,23.549-23.548
	c0-10.055-6.337-18.655-15.226-22.025c4.704-6.963,17.386-26.057,29.935-47.688C501.041,125.391,512,98.475,512,82.647z
	 M441.174,27.398c30.465,0,55.248,24.785,55.248,55.249c0,23.691-35.43,82.177-55.248,112.147
	c-19.818-29.97-55.248-88.456-55.248-112.147C385.924,52.182,410.709,27.398,441.174,27.398z M441.174,240.332
	c-4.394,0-7.971-3.576-7.971-7.97c0-4.395,3.576-7.971,7.971-7.971c4.394,0,7.971,3.576,7.971,7.971
	C449.144,236.756,445.568,240.332,441.174,240.332z"/>
<path d="M441.174,129.834c-26.02,0-47.188-21.169-47.188-47.188s21.169-47.187,47.188-47.187s47.188,21.169,47.188,47.187
	C488.361,108.665,467.192,129.834,441.174,129.834z M441.174,51.037c-17.43,0-31.61,14.18-31.61,31.609
	c0,17.43,14.179,31.61,31.61,31.61s31.61-14.18,31.61-31.61C472.783,65.217,458.603,51.037,441.174,51.037z"/>
<rect x="433.59" y="138.25" style="fill:#FFFFFF;" width="15.578" height="15.578"/>
<path d="M441.174,106.195c-12.985,0-23.549-10.564-23.549-23.548c0-12.985,10.564-23.549,23.549-23.549
	c12.985,0,23.549,10.564,23.549,23.549C464.723,95.631,454.159,106.195,441.174,106.195z M441.174,74.676
	c-4.394,0-7.971,3.576-7.971,7.971s3.576,7.97,7.971,7.97c4.394,0,7.971-3.576,7.971-7.97
	C449.144,78.252,445.568,74.676,441.174,74.676z"/>
<g>
	<rect x="125.144" y="468.506" style="fill:#FF931E;" width="24.925" height="15.578"/>
	<rect x="165.647" y="468.506" style="fill:#FF931E;" width="22.848" height="15.578"/>
	<rect x="204.073" y="468.506" style="fill:#FF931E;" width="24.925" height="15.578"/>
	<rect x="244.576" y="468.506" style="fill:#FF931E;" width="22.848" height="15.578"/>
	<rect x="283.002" y="468.506" style="fill:#FF931E;" width="24.925" height="15.578"/>
	<rect x="323.505" y="468.506" style="fill:#FF931E;" width="22.848" height="15.578"/>
</g>
<polygon style="fill:#8CC63F;" points="394.126,484.083 361.931,484.083 361.931,468.505 378.548,468.505 378.548,453.965 
	394.126,453.965 "/>
<g>
	<rect x="378.548" y="413.463" style="fill:#FF931E;" width="15.578" height="23.886"/>
	<rect x="378.548" y="375.037" style="fill:#FF931E;" width="15.578" height="22.848"/>
</g>
<polygon style="fill:#8CC63F;" points="394.126,358.42 378.548,358.42 378.548,342.842 361.931,342.842 361.931,327.264 
	394.126,327.264 "/>
<g>
	<rect x="323.505" y="327.265" style="fill:#FF931E;" width="22.848" height="15.578"/>
	<rect x="283.002" y="327.265" style="fill:#FF931E;" width="24.925" height="15.578"/>
	<rect x="244.576" y="327.265" style="fill:#FF931E;" width="22.848" height="15.578"/>
</g>
<polygon style="fill:#8CC63F;" points="228.998,342.842 196.803,342.842 196.803,311.685 212.381,311.685 212.381,327.264 
	228.998,327.264 "/>
<g>
	<rect x="196.803" y="271.183" style="fill:#FF931E;" width="15.578" height="24.925"/>
	<rect x="196.803" y="232.757" style="fill:#FF931E;" width="15.578" height="22.848"/>
</g>
<polygon style="fill:#8CC63F;" points="212.381,217.178 196.803,217.178 196.803,200.562 180.187,200.562 180.187,184.984 
	212.381,184.984 "/>
<g>
	<rect x="141.761" y="184.985" style="fill:#FF931E;" width="23.886" height="15.578"/>
	<rect x="102.296" y="184.985" style="fill:#FF931E;" width="22.848" height="15.578"/>
</g>
<polygon style="fill:#8CC63F;" points="86.718,200.562 54.523,200.562 54.523,169.406 70.101,169.406 70.101,184.984 
	86.718,184.984 "/>
<g>
	<rect x="54.523" y="129.942" style="fill:#FF931E;" width="15.578" height="23.886"/>
	<rect x="54.523" y="90.478" style="fill:#FF931E;" width="15.578" height="22.848"/>
</g>
<polygon style="fill:#8CC63F;" points="70.101,74.898 54.523,74.898 54.523,42.704 86.718,42.704 86.718,58.282 70.101,58.282 "/>
<g>
	<rect x="102.296" y="42.705" style="fill:#FF931E;" width="22.848" height="15.578"/>
	<rect x="141.761" y="42.705" style="fill:#FF931E;" width="23.886" height="15.578"/>
	<rect x="180.187" y="42.705" style="fill:#FF931E;" width="23.886" height="15.578"/>
	<rect x="220.69" y="42.705" style="fill:#FF931E;" width="23.886" height="15.578"/>
</g>
<polygon style="fill:#8CC63F;" points="291.31,74.898 275.732,74.898 275.732,58.282 259.116,58.282 259.116,42.704 291.31,42.704 
	"/>
<g>
	<rect x="275.732" y="90.478" style="fill:#FF931E;" width="15.578" height="22.848"/>
	<rect x="275.732" y="129.942" style="fill:#FF931E;" width="15.578" height="23.886"/>
	<rect x="275.732" y="169.407" style="fill:#FF931E;" width="15.578" height="22.848"/>
</g>
<polygon style="fill:#8CC63F;" points="307.927,240.026 275.732,240.026 275.732,208.87 291.31,208.87 291.31,224.448 
	307.927,224.448 "/>
<g>
	<rect x="323.505" y="224.449" style="fill:#FF931E;" width="22.848" height="15.578"/>
	<rect x="361.931" y="224.449" style="fill:#FF931E;" width="24.925" height="15.578"/>
</g>
</svg>